<svg width="801" height="360" viewBox="0 0 801 360" fill="none" xmlns="http://www.w3.org/2000/svg" class="tcg-brand-logo"><path d="M58.567 239.103h27.38v22.851h-27.38v74.537h-30.79v-74.537H.395v-22.851zm94.72 71.366-.033-.033c-4.764.129-10.715.225-17.791.225-3.218 0-5.698-.671-7.431-2.047-1.738-1.375-2.959-3.809-3.605-7.326-.675-3.522-.996-8.577-.996-15.17s.321-11.653.996-15.17c.675-3.522 1.867-5.985 3.605-7.327 1.738-1.375 4.247-2.046 7.431-2.046 4.538 0 8.431 0 11.648.062 3.217.063 6.243.063 9.073.063s5.922.062 9.235.129l2.284-22.305c-3.217-.929-6.306-1.663-9.298-2.175-2.992-.513-6.272-.93-9.844-1.184-3.605-.287-7.947-.417-13.061-.417-10.777 0-19.433 1.634-25.964 4.864s-11.227 8.543-14.124 15.874c-2.896 7.327-4.313 17.217-4.313 29.636s1.446 22.305 4.313 29.636c2.897 7.326 7.593 12.64 14.124 15.874s15.187 4.868 25.964 4.868q11.486.001 19.208-1.055a82 82 0 0 0 15.125-3.588l-2.284-22.305c-4.73.479-9.49.767-14.253.929zm204.733-59.78c2.479 4.801 3.7 11.615 3.7 20.192s-1.158 15.237-3.471 19.971c-2.317 4.734-6.114 8.098-11.424 10.019q-7.964 2.88-21.429 2.88c-4.73 0-9.456-.254-14.191-.767-.225-.033-.483-.096-.708-.096v33.603h-30.79v-97.354c4.342-.48 8.431-.801 12.261-.992 3.83-.192 8.01-.288 12.548-.35 4.539-.063 10.073-.063 16.604-.063 10.394 0 18.533.959 24.389 2.88h.033c5.855 1.921 10.04 5.28 12.482 10.081zm-27.156 20.259c0-3.105-.255-5.506-.838-7.202-.579-1.696-1.609-2.846-3.117-3.455-1.513-.608-3.701-.929-6.535-.929h-9.94v22.851h9.94c2.834 0 5.018-.321 6.535-.93 1.512-.608 2.542-1.758 3.117-3.392v.033c.55-1.633.838-3.871.838-6.976m72.586 38.208c-1.092-.929-1.638-2.175-1.638-3.68V237.47h-30.79v75.783c0 15.841 13.641 21.925 27.765 22.98 9.91.738 15.249-.321 25.159-.546 7.915-.192 10.103-18.821 12.066-25.126h-28.248c-1.801 0-3.251-.48-4.314-1.409zm112.258-62.151 25.389 89.486h-31.336l-4.893-21.029h-26.964l-4.888 21.029h-31.341l25.389-89.486c.642-2.463 1.93-4.384 3.83-5.793 1.896-1.409 4.089-2.113 6.531-2.113h27.96c2.476 0 4.634.704 6.531 2.113h-.034c1.897 1.409 3.155 3.359 3.83 5.793zM499.88 293.99l-4.86-20.9a92 92 0 0 1-.996-5.568 142 142 0 0 1-.708-5.568h-3.83a127 127 0 0 1-.709 5.568c-.291 1.921-.608 3.776-.996 5.568l-4.859 20.9zm78.317-10.56h-1.867c-.388-2.176-15.316-44.327-15.316-44.327h-31.628l32.495 67.273v30.119h30.79v-30.406l32.336-66.986h-31.628s-14.799 42.151-15.186 44.327zm86.773-21.989h35.908l1.417-21.6q-7.094-1.008-15.733-1.346a526 526 0 0 0-17.666-.417c-6.018-.033-11.84-.062-17.533-.062-6.727 0-12.228 2.046-16.537 6.143s-6.468 9.439-6.468 15.999v54.183c0 6.593 2.155 11.936 6.468 15.999 4.309 4.097 9.815 6.147 16.537 6.147 5.664 0 11.519 0 17.533-.062a523 523 0 0 0 17.666-.48c5.76-.291 11.003-.708 15.733-1.283l-1.417-21.601H664.97c-1.8 0-3.217-.479-4.251-1.409-1.029-.929-1.542-2.175-1.542-3.679v-11.711h36.616v-20.326h-36.616v-9.439c0-1.505.513-2.722 1.542-3.68v.033c1.03-.929 2.446-1.409 4.251-1.409m135.425 75.05h-32.207l-6.372-28.931c-.579-2.751-1.446-4.543-2.638-5.376-1.192-.863-3.121-1.28-5.759-1.28-3.476-.033-6.631-.096-9.494-.096v35.654H713.71v-97.359c4.347-.479 8.431-.8 12.261-.992s8.01-.287 12.611-.35c4.568-.062 10.136-.062 16.67-.062q14.48 0 23.551 2.688c6.047 1.759 10.523 4.801 13.416 9.089 2.863 4.289 4.309 10.24 4.309 17.858 0 3.839-.579 7.456-1.767 10.786-1.192 3.33-3.217 6.085-6.114 8.26-2.896 2.176-6.885 3.522-12.003 4.097v.834c1.801.191 3.764.737 5.952 1.633s4.213 2.401 6.114 4.514c1.867 2.113 3.184 5.151 3.959 9.089l.062.034 7.66 29.923zm-34.811-67.177c0-2.721-.321-4.801-.934-6.21-.642-1.442-1.738-2.4-3.346-2.975-1.609-.546-3.893-.834-6.823-.834h-10.648v20h10.648c2.926 0 5.21-.254 6.823-.833 1.608-.575 2.734-1.567 3.346-3.042v.033c.613-1.471.934-3.426.934-6.143zm-501.902 4.83v-.033h-40.317v20.325h10.94v15.074h-.129c-1.417.288-2.992.48-4.764.642a78 78 0 0 1-5.759.225c-3.218 0-5.727-.671-7.531-2.046-1.801-1.375-3.088-3.809-3.83-7.327-.771-3.521-1.125-8.577-1.125-15.17 0-4.997.225-9.089.641-12.357.417-3.234 1.159-5.792 2.188-7.618 1.03-1.825 2.447-3.105 4.247-3.809 1.801-.704 4.055-1.054 6.822-1.054 4.439 0 8.431 0 11.907.062 3.509.063 6.885.063 10.136.063s6.689.062 10.294.129l2.284-22.018a86 86 0 0 0-10.136-2.4c-3.347-.575-7.014-.992-10.94-1.279-3.926-.288-8.493-.417-13.674-.417-11.26 0-20.271 1.633-27.026 4.863-6.756 3.234-11.649 8.577-14.608 15.937-2.992 7.393-4.472 17.346-4.472 29.861s1.126 22.05 3.409 29.506c2.284 7.427 5.823 12.832 10.649 16.162s10.973 5.026 18.437 5.026c5.214 0 9.781-.833 13.77-2.467s7.272-3.647 9.843-5.985c1.384-1.246 6.177 6.498 6.177 6.498h22.684l-.129-38.596v-21.797z" fill="#000"/><path d="M494.632.665H306.161c-9.669 0-17.6 7.43-18.4 16.895a18 18 0 0 0-.071 1.58v191.467h225.416V19.14c0-10.202-8.272-18.475-18.474-18.475m-32.445 91.112-62.276 90.599c-2.901 4.217-9.511 2.167-9.511-2.955v-47.027h-11.285v.033h-39.751c-3.851 0-6.372-4.03-4.688-7.493l43.009-88.436a5.21 5.21 0 0 1 4.689-2.934h47.773c3.85 0 6.372 4.03 4.688 7.493l-20.696 42.551h43.747c4.197 0 6.672 4.705 4.297 8.164z" fill="#0968f6"/><path d="m159.119 111.222-58.909 32.273c-7.539 4.13-11.602 13.874-8.714 22.068 1.421 4.03 5.418 6.718 8.477 9.535 9.518 8.765 19.041 17.529 28.56 26.293 1.742 1.605 3.488 3.209 5.23 4.814a16.66 16.66 0 0 0 11.29 4.405h42.564l-28.498-99.384z" fill="#3cc14e"/><path d="m271.055 39.519-33.053 9.477-55.595 15.94c-9.398 2.697-14.991 12.203-12.97 21.622.088.408.184.821.304 1.23l4.364 15.224 30.852 107.594h66.102c0-.063-.004-.121-.004-.183z" fill="#ffbd14"/><path d="M700.586 143.495c-.05-.025-58.908-32.273-58.908-32.273l-28.498 99.384h42.563a16.66 16.66 0 0 0 11.29-4.405c1.742-1.605 3.488-3.209 5.23-4.814l28.561-26.293c3.059-2.817 7.056-5.505 8.477-9.535 2.888-8.19-1.18-17.938-8.715-22.068z" fill="#ff8806"/><path d="M683.062 156.095h.033c-24.388-7.715-23.196 33.574-56.399 34.724-1.13.033-1.934 1.121-1.609 2.209.225.704.742 1.279 1.417 1.537 37.033 15.137 39.417-29.06 56.629-35.203 1.575-.575 1.542-2.751-.067-3.263z" fill="#ffc382"/><path d="M666.479 143.133v.033a1.79 1.79 0 0 0-.063-3.425c-20.454-6.389-23.734 19.9-41.917 31.423L620.96 183.5c25.969.775 29.878-34.707 45.519-40.367" fill="#ffc382"/><path d="M160.472 145.936c-6.014-1.904-12.29-2.43-18.533-2.596-3.701-.1-10.34.525-14.899 1.05a4.845 4.845 0 0 0-4.293 5.355c.563 4.731 1.521 11.795 2.676 15.445 3.038 9.465 8.389 19.288 15.591 26.319 6.443 6.309 16.449 11.402 25.797 10.71.663-.066 1.254-.1 1.784-.1 4.988-.262 8.322-5.322 6.443-9.956-5.022-12.386-16.683-22.705-24.876-28.786-1.155-.854-.1-2.663 1.221-2.071 9.877 4.339 23.33 12.432 29.044 24.193l-10.182-35.512c-3.067-1.671-6.51-2.942-9.777-3.993v-.066z" fill="#a6f0a5"/><path d="M631.055 87.787c.117-.408.212-.816.304-1.229 2.025-9.419-3.572-18.925-12.969-21.621l-55.596-15.941-33.053-9.477v170.904c0 .062 0 .12-.004.183h66.102l30.852-107.594z" fill="#f02d2d"/><path d="M551.575 123.448c.442-.179.908-.337 1.384-.458 1.221-.308 2.492-.342 3.534.308 1.75 1.088 2.363 3.726 1.588 5.564-5.206 12.361 8.806 31.174.641 50.494-1.271 3.009-3.155 5.698-5.367 8.061-2.051 2.167.387 5.567 3.121 4.338 12.59-5.726 25.118-14.37 30.452-27.023 4.101-9.706 4.264-19.45 2.797-28.931-.584-3.755-5.239-5.305-7.906-2.588-.425.421-.896.788-1.3 1.196-5.072 5.097-7.81-1.004-5.822-4.726 1.529-2.88 3.121-6.085 4.359-9.027 6.993-16.599 4.88-31.003 1.138-41.196 0 0-.096-.196-.129-.292l-.196-.488c-.621-1.583-1.401-3.43-1.988-4.626-1.334-2.75-5.11-3.138-7.123-.617-.066.096-.583.972-.65 1.197-.162.42-.325.808-.521 1.229-7.776 16.437-24.559 19.513-39.85 27.406v31.719c.058.334.058.667 0 1.03v21.788c1.263-7.485 1.558-9.302 4.226-15.441 3.375-7.777 9.552-15.662 17.612-18.917" fill="#ffa0a0"/><path d="m260.79 84.952-11.828-11.899c-.821-.825-2.284-1.291-3.413-.954-1.338.396-1.817 1.788-2.313 2.955-.638 1.496-1.129 3.05-1.717 4.563-.95 2.438-1.909 4.876-2.859 7.319l-1.046 2.688a11.19 11.19 0 0 1-10.461 7.135l-16.853-.05c-1.196.012-2.351.608-3.018 1.6-.662 1.021-.792 2.275-.291 3.38l6.768 15.232a11.2 11.2 0 0 1-2.376 12.52l-11.952 11.769c-.88.863-1.226 2.075-.98 3.272a3.55 3.55 0 0 0 2.221 2.583l15.666 6.018a11.17 11.17 0 0 1 7.169 10.49l-.088 16.696c.008 1.191.604 2.338 1.6 3 1.026.659 2.284.78 3.397.284l15.412-6.81a11.18 11.18 0 0 1 12.448 2.346c2.584 2.597 5.164 5.197 7.748 7.794q1.381 1.387 2.763 2.779c.975.98 1.971 2.109 3.409 2.33.283.042.575.042.863 0v-34.316a22 22 0 0 1-4.122 1.638c-3.638 1.017-7.843 1.259-11.586.846a23 23 0 0 1-1.846-.275c-15.533-2.917-25.722-17.791-22.784-33.253 1.208-6.364 4.638-12.199 9.577-16.383a29.2 29.2 0 0 1 7.147-4.455c4.951-2.155 10.84-2.626 16.116-1.638 2.672.5 5.181 1.363 7.494 2.513v-18.67a11.17 11.17 0 0 1-10.265-3.047" fill="#ffe58a"/><path d="M257.206 109.454c-3.022.138-5.86.892-8.436 2.076l-.012-.021q-.256.13-.513.266c-.05.025-.1.046-.15.071-7.472 4.026-12.407 12.049-12.032 21.08l.013.029c.542 12.524 11.177 22.205 23.776 21.597 3.021-.138 5.86-.892 8.435-2.076l.013.021q.256-.13.512-.267c.05-.025.1-.046.15-.071a24 24 0 0 0 2.092-1.283v-37.554a22.66 22.66 0 0 0-13.848-3.864z" fill="#ffe58a"/><text x="400.5" y="355" font-family="Arial, Helvetica, sans-serif" font-size="24" fill="#000" text-anchor="middle" font-weight="bold" letter-spacing=".04em">reimagined</text></svg>